# xmcd CD database file
#
# Track frame offsets:
#	150
#	11192
#	24723
#	36934
#	53731
#	67295
#	80404
#	99128
#	116297
#
# Disc length: 1867 seconds
#
# Revision: 0
# Processed by: cddbd v1.5.1PL2 Copyright (c) Steve Scherf et al.
# Submitted via: CDex 1.51
#
DISCID=6f074909
DTITLE=Blue Tenders - Live at Brassmeiers
DYEAR=2000
DGENRE=Blues
TTITLE0=The Game
TTITLE1=Hells Kitchen
TTITLE2=Oh Papa
TTITLE3=Release At Playtime
TTITLE4=Back On The Road
TTITLE5=Marlene
TTITLE6=The Wind
TTITLE7=I M B (International Mafia Blues)
TTITLE8=Smack Dab In The Middle
EXTD=YEAR: 2000
EXTT0=
EXTT1=
EXTT2=
EXTT3=
EXTT4=
EXTT5=
EXTT6=
EXTT7=
EXTT8=
PLAYORDER=
